<?xml version="1.0" encoding="UTF-8" standalone="no"?><svg xmlns="http://www.w3.org/2000/svg" xmlns:xlink="http://www.w3.org/1999/xlink" contentScriptType="application/ecmascript" contentStyleType="text/css" height="476px" preserveAspectRatio="none" style="width:1397px;height:476px;" version="1.1" viewBox="0 0 1397 476" width="1397px" zoomAndPan="magnify"><defs><filter height="300%" id="f1bke7zae048id" width="300%" x="-1" y="-1"><feGaussianBlur result="blurOut" stdDeviation="2.0"/><feColorMatrix in="blurOut" result="blurOut2" type="matrix" values="0 0 0 0 0 0 0 0 0 0 0 0 0 0 0 0 0 0 .4 0"/><feOffset dx="4.0" dy="4.0" in="blurOut2" result="blurOut3"/><feBlend in="SourceGraphic" in2="blurOut3" mode="normal"/></filter></defs><g><text fill="#000000" font-family="sans-serif" font-size="18" lengthAdjust="spacingAndGlyphs" textLength="320" x="544.5" y="16.708">Cola Vending Machine 5 GUI Edition</text><!--MD5=[edc8b14840189a17816f251cdfe15285]
cluster User Interface Layer--><polygon fill="#FFFFFF" filter="url(#f1bke7zae048id)" points="679,44.9531,847,44.9531,854,67.25,883,67.25,883,131.9531,679,131.9531,679,44.9531" style="stroke: #000000; stroke-width: 1.5;"/><line style="stroke: #000000; stroke-width: 1.5;" x1="679" x2="854" y1="67.25" y2="67.25"/><text fill="#000000" font-family="sans-serif" font-size="14" font-weight="bold" lengthAdjust="spacingAndGlyphs" textLength="162" x="683" y="59.9482">User Interface Layer</text><!--MD5=[28a4330076c6db094a00bc6d9333ecd7]
cluster System Control Layer--><polygon fill="#FFFFFF" filter="url(#f1bke7zae048id)" points="688,155.9531,864,155.9531,871,178.25,874,178.25,874,242.9531,688,242.9531,688,155.9531" style="stroke: #000000; stroke-width: 1.5;"/><line style="stroke: #000000; stroke-width: 1.5;" x1="688" x2="871" y1="178.25" y2="178.25"/><text fill="#000000" font-family="sans-serif" font-size="14" font-weight="bold" lengthAdjust="spacingAndGlyphs" textLength="170" x="692" y="170.9482">System Control Layer</text><!--MD5=[7e0f5f35693f8121baa8c6af3941272e]
cluster Subsystems Layer--><polygon fill="#FFFFFF" filter="url(#f1bke7zae048id)" points="22,266.9531,173,266.9531,180,289.25,1375,289.25,1375,353.9531,22,353.9531,22,266.9531" style="stroke: #000000; stroke-width: 1.5;"/><line style="stroke: #000000; stroke-width: 1.5;" x1="22" x2="180" y1="289.25" y2="289.25"/><text fill="#000000" font-family="sans-serif" font-size="14" font-weight="bold" lengthAdjust="spacingAndGlyphs" textLength="145" x="26" y="281.9482">Subsystems Layer</text><!--MD5=[6b9f495ef636946ef962100eb5d9d4bd]
cluster Hardware Abstraction Layer--><polygon fill="#FFFFFF" filter="url(#f1bke7zae048id)" points="662,377.9531,890,377.9531,897,400.25,900,400.25,900,464.9531,662,464.9531,662,377.9531" style="stroke: #000000; stroke-width: 1.5;"/><line style="stroke: #000000; stroke-width: 1.5;" x1="662" x2="897" y1="400.25" y2="400.25"/><text fill="#000000" font-family="sans-serif" font-size="14" font-weight="bold" lengthAdjust="spacingAndGlyphs" textLength="222" x="666" y="392.9482">Hardware Abstraction Layer</text><!--MD5=[70d610b3ca277a70fbee293757a13e46]
entity Display--><rect fill="#FEFECE" filter="url(#f1bke7zae048id)" height="36.2969" style="stroke: #A80036; stroke-width: 1.5;" width="69" x="797.5" y="79.9531"/><rect fill="#FEFECE" height="5" style="stroke: #A80036; stroke-width: 1.5;" width="10" x="792.5" y="84.9531"/><rect fill="#FEFECE" height="5" style="stroke: #A80036; stroke-width: 1.5;" width="10" x="792.5" y="106.25"/><text fill="#000000" font-family="sans-serif" font-size="14" lengthAdjust="spacingAndGlyphs" textLength="49" x="807.5" y="102.9482">Display</text><!--MD5=[bc2fd5651783ca18485163f10b4d2093]
entity Mouse--><rect fill="#FEFECE" filter="url(#f1bke7zae048id)" height="36.2969" style="stroke: #A80036; stroke-width: 1.5;" width="67" x="695.5" y="79.9531"/><rect fill="#FEFECE" height="5" style="stroke: #A80036; stroke-width: 1.5;" width="10" x="690.5" y="84.9531"/><rect fill="#FEFECE" height="5" style="stroke: #A80036; stroke-width: 1.5;" width="10" x="690.5" y="106.25"/><text fill="#000000" font-family="sans-serif" font-size="14" lengthAdjust="spacingAndGlyphs" textLength="47" x="705.5" y="102.9482">Mouse</text><!--MD5=[62325d60dc3be6e67059b26164a6db3f]
entity Windowprocedure--><rect fill="#00FFFF" filter="url(#f1bke7zae048id)" height="36.2969" style="stroke: #A80036; stroke-width: 1.5;" width="146" x="708" y="190.9531"/><rect fill="#00FFFF" height="5" style="stroke: #A80036; stroke-width: 1.5;" width="10" x="703" y="195.9531"/><rect fill="#00FFFF" height="5" style="stroke: #A80036; stroke-width: 1.5;" width="10" x="703" y="217.25"/><text fill="#000000" font-family="sans-serif" font-size="14" lengthAdjust="spacingAndGlyphs" textLength="126" x="718" y="213.9482">Windowprocedure</text><!--MD5=[4bc4250c1827ab2d73074e82e17c3438]
entity CoinHandelingProcedure--><rect fill="#FEFECE" filter="url(#f1bke7zae048id)" height="36.2969" style="stroke: #A80036; stroke-width: 1.5;" width="192" x="1167" y="301.9531"/><rect fill="#FEFECE" height="5" style="stroke: #A80036; stroke-width: 1.5;" width="10" x="1162" y="306.9531"/><rect fill="#FEFECE" height="5" style="stroke: #A80036; stroke-width: 1.5;" width="10" x="1162" y="328.25"/><text fill="#000000" font-family="sans-serif" font-size="14" lengthAdjust="spacingAndGlyphs" textLength="172" x="1177" y="324.9482">CoinHandelingProcedure</text><!--MD5=[3ff708615cfcbfbfa8084a4b20b22ba3]
entity PayWithDebitCard--><rect fill="#FEFECE" filter="url(#f1bke7zae048id)" height="36.2969" style="stroke: #A80036; stroke-width: 1.5;" width="143" x="988.5" y="301.9531"/><rect fill="#FEFECE" height="5" style="stroke: #A80036; stroke-width: 1.5;" width="10" x="983.5" y="306.9531"/><rect fill="#FEFECE" height="5" style="stroke: #A80036; stroke-width: 1.5;" width="10" x="983.5" y="328.25"/><text fill="#000000" font-family="sans-serif" font-size="14" lengthAdjust="spacingAndGlyphs" textLength="123" x="998.5" y="324.9482">PayWithDebitCard</text><!--MD5=[0223e31805c446346c590bcedb72cab2]
entity UserDrinkSelection--><rect fill="#FEFECE" filter="url(#f1bke7zae048id)" height="36.2969" style="stroke: #A80036; stroke-width: 1.5;" width="152" x="801" y="301.9531"/><rect fill="#FEFECE" height="5" style="stroke: #A80036; stroke-width: 1.5;" width="10" x="796" y="306.9531"/><rect fill="#FEFECE" height="5" style="stroke: #A80036; stroke-width: 1.5;" width="10" x="796" y="328.25"/><text fill="#000000" font-family="sans-serif" font-size="14" lengthAdjust="spacingAndGlyphs" textLength="132" x="811" y="324.9482">UserDrinkSelection</text><!--MD5=[63694826eb1aec8fc4e6a044c21bf330]
entity WriteToScreenbuffer--><rect fill="#FEFECE" filter="url(#f1bke7zae048id)" height="36.2969" style="stroke: #A80036; stroke-width: 1.5;" width="162" x="604" y="301.9531"/><rect fill="#FEFECE" height="5" style="stroke: #A80036; stroke-width: 1.5;" width="10" x="599" y="306.9531"/><rect fill="#FEFECE" height="5" style="stroke: #A80036; stroke-width: 1.5;" width="10" x="599" y="328.25"/><text fill="#000000" font-family="sans-serif" font-size="14" lengthAdjust="spacingAndGlyphs" textLength="142" x="614" y="324.9482">WriteToScreenbuffer</text><!--MD5=[ebe6ebaef122889b5c89eeb23f0962ad]
entity Initialization--><rect fill="#FEFECE" filter="url(#f1bke7zae048id)" height="36.2969" style="stroke: #A80036; stroke-width: 1.5;" width="99" x="469.5" y="301.9531"/><rect fill="#FEFECE" height="5" style="stroke: #A80036; stroke-width: 1.5;" width="10" x="464.5" y="306.9531"/><rect fill="#FEFECE" height="5" style="stroke: #A80036; stroke-width: 1.5;" width="10" x="464.5" y="328.25"/><text fill="#000000" font-family="sans-serif" font-size="14" lengthAdjust="spacingAndGlyphs" textLength="79" x="479.5" y="324.9482">Initialization</text><!--MD5=[0a2c5062d38aa8ad5371525f9dba8bae]
entity WriteToDisplayBuffers--><rect fill="#FEFECE" filter="url(#f1bke7zae048id)" height="36.2969" style="stroke: #A80036; stroke-width: 1.5;" width="171" x="263.5" y="301.9531"/><rect fill="#FEFECE" height="5" style="stroke: #A80036; stroke-width: 1.5;" width="10" x="258.5" y="306.9531"/><rect fill="#FEFECE" height="5" style="stroke: #A80036; stroke-width: 1.5;" width="10" x="258.5" y="328.25"/><text fill="#000000" font-family="sans-serif" font-size="14" lengthAdjust="spacingAndGlyphs" textLength="151" x="273.5" y="324.9482">WriteToDisplayBuffers</text><!--MD5=[8ae48ff6af5725c0a16a47def2be82f1]
entity AppendToDisplayBuffers--><rect fill="#FEFECE" filter="url(#f1bke7zae048id)" height="36.2969" style="stroke: #A80036; stroke-width: 1.5;" width="190" x="38" y="301.9531"/><rect fill="#FEFECE" height="5" style="stroke: #A80036; stroke-width: 1.5;" width="10" x="33" y="306.9531"/><rect fill="#FEFECE" height="5" style="stroke: #A80036; stroke-width: 1.5;" width="10" x="33" y="328.25"/><text fill="#000000" font-family="sans-serif" font-size="14" lengthAdjust="spacingAndGlyphs" textLength="170" x="48" y="324.9482">AppendToDisplayBuffers</text><!--MD5=[f17a902bfed6a88845be0900ff5221e6]
entity Hardware IO--><rect fill="#FEFECE" filter="url(#f1bke7zae048id)" height="36.2969" style="stroke: #A80036; stroke-width: 1.5;" width="103" x="729.5" y="412.9531"/><rect fill="#FEFECE" height="5" style="stroke: #A80036; stroke-width: 1.5;" width="10" x="724.5" y="417.9531"/><rect fill="#FEFECE" height="5" style="stroke: #A80036; stroke-width: 1.5;" width="10" x="724.5" y="439.25"/><text fill="#000000" font-family="sans-serif" font-size="14" lengthAdjust="spacingAndGlyphs" textLength="83" x="739.5" y="435.9482">Hardware IO</text><!--MD5=[ff8fad44bb8608a4e5d30dc2985dbf7f]
reverse link Mouse to Windowprocedure--><path d="M739.389,120.7291 C749.201,141.2971 763.723,171.7371 772.76,190.6821 " fill="none" id="Mouse&lt;-Windowprocedure" style="stroke: #A80036; stroke-width: 1.0;"/><polygon fill="#A80036" points="737.125,115.9841,737.3899,125.8294,739.2778,120.4969,744.6103,122.3849,737.125,115.9841" style="stroke: #A80036; stroke-width: 1.0;"/><!--MD5=[f70c824c233a44d69a2e916a86444c6b]
reverse link Display to Windowprocedure--><path d="M821.811,120.7291 C812.188,141.2971 797.945,171.7371 789.081,190.6821 " fill="none" id="Display&lt;-Windowprocedure" style="stroke: #A80036; stroke-width: 1.0;"/><polygon fill="#A80036" points="824.031,115.9841,816.5925,122.4392,821.9111,120.5125,823.8379,125.8311,824.031,115.9841" style="stroke: #A80036; stroke-width: 1.0;"/><!--MD5=[e4ce3ce2a959f3394c131255dd2ea7c6]
link Windowprocedure to CoinHandelingProcedure--><path d="M854.222,212.1561 C929.693,216.1591 1049.97,227.4041 1149,258.9531 C1178.97,268.5001 1210.41,285.6641 1232.67,299.1951 " fill="none" id="Windowprocedure-&gt;CoinHandelingProcedure" style="stroke: #A80036; stroke-width: 1.0;"/><polygon fill="#A80036" points="1236.99,301.8491,1231.43,293.7198,1232.7345,299.2242,1227.2301,300.5287,1236.99,301.8491" style="stroke: #A80036; stroke-width: 1.0;"/><!--MD5=[033ed1add2041d17da30e1df30df0df6]
link Windowprocedure to PayWithDebitCard--><path d="M854.241,222.7421 C890.377,230.5631 934.031,242.3201 971,258.9531 C994.029,269.3141 1017.62,285.5191 1034.72,298.4771 " fill="none" id="Windowprocedure-&gt;PayWithDebitCard" style="stroke: #A80036; stroke-width: 1.0;"/><polygon fill="#A80036" points="1038.92,301.6961,1034.2102,293.0464,1034.9516,298.6545,1029.3435,299.3959,1038.92,301.6961" style="stroke: #A80036; stroke-width: 1.0;"/><!--MD5=[c22b73f063bd9caccca8d20c6153a42e]
link Windowprocedure to UserDrinkSelection--><path d="M796,226.9841 C812.809,246.0701 840.083,277.0371 858.277,297.6941 " fill="none" id="Windowprocedure-&gt;UserDrinkSelection" style="stroke: #A80036; stroke-width: 1.0;"/><polygon fill="#A80036" points="861.789,301.6821,858.8419,292.2845,858.4842,297.9301,852.8386,297.5723,861.789,301.6821" style="stroke: #A80036; stroke-width: 1.0;"/><!--MD5=[4596b29a04fa9ce4e34484b238f24e7a]
link Windowprocedure to WriteToScreenbuffer--><path d="M766,226.9841 C749.191,246.0701 721.917,277.0371 703.723,297.6941 " fill="none" id="Windowprocedure-&gt;WriteToScreenbuffer" style="stroke: #A80036; stroke-width: 1.0;"/><polygon fill="#A80036" points="700.211,301.6821,709.1614,297.5723,703.5158,297.9301,703.1581,292.2845,700.211,301.6821" style="stroke: #A80036; stroke-width: 1.0;"/><!--MD5=[7e7125927df00fa74eb409493dd2a0d1]
link Windowprocedure to Initialization--><path d="M707.999,219.9281 C670.306,227.1331 624.489,239.1881 587,258.9531 C568.32,268.8011 550.548,284.8001 537.86,297.8011 " fill="none" id="Windowprocedure-&gt;Initialization" style="stroke: #A80036; stroke-width: 1.0;"/><polygon fill="#A80036" points="534.091,301.7291,543.2086,298.0049,537.5529,298.1215,537.4363,292.4658,534.091,301.7291" style="stroke: #A80036; stroke-width: 1.0;"/><!--MD5=[e74af35a0440eb677edbdbb411815184]
link Windowprocedure to AppendToDisplayBuffers--><path d="M707.602,213.0911 C581.82,219.0641 330.467,233.7721 246,258.9531 C215.867,267.9361 184.506,285.3311 162.489,299.0891 " fill="none" id="Windowprocedure-&gt;AppendToDisplayBuffers" style="stroke: #A80036; stroke-width: 1.0;"/><polygon fill="#A80036" points="158.214,301.7881,167.9593,300.3638,162.4413,299.118,163.6871,293.6,158.214,301.7881" style="stroke: #A80036; stroke-width: 1.0;"/><!--MD5=[0d9245daaf35b08a5e285c5c4be273a7]
link CoinHandelingProcedure to Hardware IO--><path d="M1220.76,338.0001 C1199.49,346.1041 1173.16,355.4221 1149,361.9531 C1040.59,391.2559 910.806,411.9891 837.936,422.3661 " fill="none" id="CoinHandelingProcedure-&gt;Hardware IO" style="stroke: #A80036; stroke-width: 1.0;"/><polygon fill="#A80036" points="832.789,423.0953,842.2611,425.7932,837.7396,422.3939,841.1389,417.8723,832.789,423.0953" style="stroke: #A80036; stroke-width: 1.0;"/><!--MD5=[39e1b1ed652afba47ebd29d38e1e9ba7]
link PayWithDebitCard to Hardware IO--><path d="M1024.8,338.0351 C1008.57,345.6891 988.954,354.6211 971,361.9531 C926.766,380.0161 875.74,398.1322 837.712,411.1183 " fill="none" id="PayWithDebitCard-&gt;Hardware IO" style="stroke: #A80036; stroke-width: 1.0;"/><polygon fill="#A80036" points="832.671,412.836,842.4802,413.7191,837.4037,411.2232,839.8997,406.1468,832.671,412.836" style="stroke: #A80036; stroke-width: 1.0;"/><!--MD5=[98c0d9a4c9497a7c9099c4d0c118f6b7]
link UserDrinkSelection to Hardware IO--><path d="M862,337.9841 C845.191,357.0701 817.917,388.0367 799.723,408.6943 " fill="none" id="UserDrinkSelection-&gt;Hardware IO" style="stroke: #A80036; stroke-width: 1.0;"/><polygon fill="#A80036" points="796.211,412.6817,805.1617,408.5727,799.5162,408.9299,799.1589,403.2844,796.211,412.6817" style="stroke: #A80036; stroke-width: 1.0;"/><!--MD5=[b675ab731d60f4ad6be6ea26d564da47]
link WriteToScreenbuffer to Hardware IO--><path d="M700,337.9841 C716.809,357.0701 744.083,388.0367 762.277,408.6943 " fill="none" id="WriteToScreenbuffer-&gt;Hardware IO" style="stroke: #A80036; stroke-width: 1.0;"/><polygon fill="#A80036" points="765.789,412.6817,762.8411,403.2844,762.4838,408.9299,756.8383,408.5727,765.789,412.6817" style="stroke: #A80036; stroke-width: 1.0;"/><!--MD5=[c8cfaefd150e42cc0ba791bbc78de7c4]
link Initialization to Hardware IO--><path d="M544.465,338.0151 C556.949,345.9311 572.406,355.0851 587,361.9531 C631.658,382.9692 684.679,401.123 723.997,413.374 " fill="none" id="Initialization-&gt;Hardware IO" style="stroke: #A80036; stroke-width: 1.0;"/><polygon fill="#A80036" points="729.208,414.9882,721.7952,408.5036,724.432,413.5083,719.4273,416.1451,729.208,414.9882" style="stroke: #A80036; stroke-width: 1.0;"/><!--MD5=[bb1ee6cda9025b9e11e5d2bb63c979d7]
link AppendToDisplayBuffers to Hardware IO--><path d="M173.128,337.9751 C194.429,346.3771 221.252,355.9691 246,361.9531 C417.214,403.352 625.718,420.6281 724.236,426.8784 " fill="none" id="AppendToDisplayBuffers-&gt;Hardware IO" style="stroke: #A80036; stroke-width: 1.0;"/><polygon fill="#A80036" points="729.417,427.2034,720.6849,422.6481,724.4268,426.8906,720.1843,430.6324,729.417,427.2034" style="stroke: #A80036; stroke-width: 1.0;"/><!--MD5=[8464ebf626e18171632202d1ea2d4f3e]
@startuml


title Cola Vending Machine 5 GUI Edition

package "User Interface Layer" {
    [Display]
    [Mouse]
}

package "System Control Layer" {
    [Windowprocedure] #Cyan
}

package "Subsystems Layer" {
    [CoinHandelingProcedure]
    [PayWithDebitCard]
    [UserDrinkSelection]
    [WriteToScreenbuffer]
    [Initialization]
    [WriteToDisplayBuffers]
    [AppendToDisplayBuffers]
}

package "Hardware Abstraction Layer" {
    [Hardware IO]
}

[Windowprocedure] -up-> [Mouse]
[Windowprocedure] -up-> [Display]

[Windowprocedure] -down-> [CoinHandelingProcedure]
[Windowprocedure] -down-> [PayWithDebitCard]
[Windowprocedure] -down-> [UserDrinkSelection]
[Windowprocedure] -down-> [WriteToScreenbuffer]
[Windowprocedure] -down-> [Initialization]
[Windowprocedure] -down-> [AppendToDisplayBuffers]

[CoinHandelingProcedure] -down-> [Hardware IO]
[PayWithDebitCard] -down-> [Hardware IO]
[UserDrinkSelection] -down-> [Hardware IO]
[WriteToScreenbuffer] -down-> [Hardware IO]
[Initialization] -down-> [Hardware IO]
[AppendToDisplayBuffers] -down-> [Hardware IO]
@enduml

PlantUML version 1.2020.00(Sat Jan 11 12:30:53 UTC 2020)
(GPL source distribution)
Java Runtime: Java(TM) SE Runtime Environment
JVM: Java HotSpot(TM) 64-Bit Server VM
Java Version: 1.7.0_25-b15
Operating System: Linux
Default Encoding: UTF-8
Language: en
Country: US
--></g></svg>