<?xml version="1.0" encoding="UTF-8" standalone="no"?><svg xmlns="http://www.w3.org/2000/svg" xmlns:xlink="http://www.w3.org/1999/xlink" contentScriptType="application/ecmascript" contentStyleType="text/css" height="476px" preserveAspectRatio="none" style="width:1365px;height:476px;" version="1.1" viewBox="0 0 1365 476" width="1365px" zoomAndPan="magnify"><defs><filter height="300%" id="fcilsm0hrkqak" width="300%" x="-1" y="-1"><feGaussianBlur result="blurOut" stdDeviation="2.0"/><feColorMatrix in="blurOut" result="blurOut2" type="matrix" values="0 0 0 0 0 0 0 0 0 0 0 0 0 0 0 0 0 0 .4 0"/><feOffset dx="4.0" dy="4.0" in="blurOut2" result="blurOut3"/><feBlend in="SourceGraphic" in2="blurOut3" mode="normal"/></filter></defs><g><text fill="#000000" font-family="sans-serif" font-size="18" lengthAdjust="spacingAndGlyphs" textLength="320" x="528.5" y="16.708">Cola Vending Machine 5 GUI Edition</text><!--MD5=[edc8b14840189a17816f251cdfe15285]
cluster User Interface Layer--><polygon fill="#FFFFFF" filter="url(#fcilsm0hrkqak)" points="647,44.9531,815,44.9531,822,67.25,851,67.25,851,131.9531,647,131.9531,647,44.9531" style="stroke: #000000; stroke-width: 1.5;"/><line style="stroke: #000000; stroke-width: 1.5;" x1="647" x2="822" y1="67.25" y2="67.25"/><text fill="#000000" font-family="sans-serif" font-size="14" font-weight="bold" lengthAdjust="spacingAndGlyphs" textLength="162" x="651" y="59.9482">User Interface Layer</text><!--MD5=[28a4330076c6db094a00bc6d9333ecd7]
cluster System Control Layer--><polygon fill="#FFFFFF" filter="url(#fcilsm0hrkqak)" points="656,155.9531,832,155.9531,839,178.25,842,178.25,842,242.9531,656,242.9531,656,155.9531" style="stroke: #000000; stroke-width: 1.5;"/><line style="stroke: #000000; stroke-width: 1.5;" x1="656" x2="839" y1="178.25" y2="178.25"/><text fill="#000000" font-family="sans-serif" font-size="14" font-weight="bold" lengthAdjust="spacingAndGlyphs" textLength="170" x="660" y="170.9482">System Control Layer</text><!--MD5=[7e0f5f35693f8121baa8c6af3941272e]
cluster Subsystems Layer--><polygon fill="#FFFFFF" filter="url(#fcilsm0hrkqak)" points="215,266.9531,366,266.9531,373,289.25,1343,289.25,1343,353.9531,215,353.9531,215,266.9531" style="stroke: #000000; stroke-width: 1.5;"/><line style="stroke: #000000; stroke-width: 1.5;" x1="215" x2="373" y1="289.25" y2="289.25"/><text fill="#000000" font-family="sans-serif" font-size="14" font-weight="bold" lengthAdjust="spacingAndGlyphs" textLength="145" x="219" y="281.9482">Subsystems Layer</text><!--MD5=[6b9f495ef636946ef962100eb5d9d4bd]
cluster Hardware Abstraction Layer--><polygon fill="#FFFFFF" filter="url(#fcilsm0hrkqak)" points="630,377.9531,858,377.9531,865,400.25,868,400.25,868,464.9531,630,464.9531,630,377.9531" style="stroke: #000000; stroke-width: 1.5;"/><line style="stroke: #000000; stroke-width: 1.5;" x1="630" x2="865" y1="400.25" y2="400.25"/><text fill="#000000" font-family="sans-serif" font-size="14" font-weight="bold" lengthAdjust="spacingAndGlyphs" textLength="222" x="634" y="392.9482">Hardware Abstraction Layer</text><!--MD5=[70d610b3ca277a70fbee293757a13e46]
entity Display--><rect fill="#FEFECE" filter="url(#fcilsm0hrkqak)" height="36.2969" style="stroke: #A80036; stroke-width: 1.5;" width="69" x="765.5" y="79.9531"/><rect fill="#FEFECE" height="5" style="stroke: #A80036; stroke-width: 1.5;" width="10" x="760.5" y="84.9531"/><rect fill="#FEFECE" height="5" style="stroke: #A80036; stroke-width: 1.5;" width="10" x="760.5" y="106.25"/><text fill="#000000" font-family="sans-serif" font-size="14" lengthAdjust="spacingAndGlyphs" textLength="49" x="775.5" y="102.9482">Display</text><!--MD5=[bc2fd5651783ca18485163f10b4d2093]
entity Mouse--><rect fill="#FEFECE" filter="url(#fcilsm0hrkqak)" height="36.2969" style="stroke: #A80036; stroke-width: 1.5;" width="67" x="663.5" y="79.9531"/><rect fill="#FEFECE" height="5" style="stroke: #A80036; stroke-width: 1.5;" width="10" x="658.5" y="84.9531"/><rect fill="#FEFECE" height="5" style="stroke: #A80036; stroke-width: 1.5;" width="10" x="658.5" y="106.25"/><text fill="#000000" font-family="sans-serif" font-size="14" lengthAdjust="spacingAndGlyphs" textLength="47" x="673.5" y="102.9482">Mouse</text><!--MD5=[62325d60dc3be6e67059b26164a6db3f]
entity Windowprocedure--><rect fill="#00FFFF" filter="url(#fcilsm0hrkqak)" height="36.2969" style="stroke: #A80036; stroke-width: 1.5;" width="146" x="676" y="190.9531"/><rect fill="#00FFFF" height="5" style="stroke: #A80036; stroke-width: 1.5;" width="10" x="671" y="195.9531"/><rect fill="#00FFFF" height="5" style="stroke: #A80036; stroke-width: 1.5;" width="10" x="671" y="217.25"/><text fill="#000000" font-family="sans-serif" font-size="14" lengthAdjust="spacingAndGlyphs" textLength="126" x="686" y="213.9482">Windowprocedure</text><!--MD5=[4bc4250c1827ab2d73074e82e17c3438]
entity CoinHandelingProcedure--><rect fill="#FEFECE" filter="url(#fcilsm0hrkqak)" height="36.2969" style="stroke: #A80036; stroke-width: 1.5;" width="192" x="1135" y="301.9531"/><rect fill="#FEFECE" height="5" style="stroke: #A80036; stroke-width: 1.5;" width="10" x="1130" y="306.9531"/><rect fill="#FEFECE" height="5" style="stroke: #A80036; stroke-width: 1.5;" width="10" x="1130" y="328.25"/><text fill="#000000" font-family="sans-serif" font-size="14" lengthAdjust="spacingAndGlyphs" textLength="172" x="1145" y="324.9482">CoinHandelingProcedure</text><!--MD5=[3ff708615cfcbfbfa8084a4b20b22ba3]
entity PayWithDebitCard--><rect fill="#FEFECE" filter="url(#fcilsm0hrkqak)" height="36.2969" style="stroke: #A80036; stroke-width: 1.5;" width="143" x="956.5" y="301.9531"/><rect fill="#FEFECE" height="5" style="stroke: #A80036; stroke-width: 1.5;" width="10" x="951.5" y="306.9531"/><rect fill="#FEFECE" height="5" style="stroke: #A80036; stroke-width: 1.5;" width="10" x="951.5" y="328.25"/><text fill="#000000" font-family="sans-serif" font-size="14" lengthAdjust="spacingAndGlyphs" textLength="123" x="966.5" y="324.9482">PayWithDebitCard</text><!--MD5=[0223e31805c446346c590bcedb72cab2]
entity UserDrinkSelection--><rect fill="#FEFECE" filter="url(#fcilsm0hrkqak)" height="36.2969" style="stroke: #A80036; stroke-width: 1.5;" width="152" x="769" y="301.9531"/><rect fill="#FEFECE" height="5" style="stroke: #A80036; stroke-width: 1.5;" width="10" x="764" y="306.9531"/><rect fill="#FEFECE" height="5" style="stroke: #A80036; stroke-width: 1.5;" width="10" x="764" y="328.25"/><text fill="#000000" font-family="sans-serif" font-size="14" lengthAdjust="spacingAndGlyphs" textLength="132" x="779" y="324.9482">UserDrinkSelection</text><!--MD5=[63694826eb1aec8fc4e6a044c21bf330]
entity WriteToScreenbuffer--><rect fill="#FEFECE" filter="url(#fcilsm0hrkqak)" height="36.2969" style="stroke: #A80036; stroke-width: 1.5;" width="162" x="572" y="301.9531"/><rect fill="#FEFECE" height="5" style="stroke: #A80036; stroke-width: 1.5;" width="10" x="567" y="306.9531"/><rect fill="#FEFECE" height="5" style="stroke: #A80036; stroke-width: 1.5;" width="10" x="567" y="328.25"/><text fill="#000000" font-family="sans-serif" font-size="14" lengthAdjust="spacingAndGlyphs" textLength="142" x="582" y="324.9482">WriteToScreenbuffer</text><!--MD5=[ebe6ebaef122889b5c89eeb23f0962ad]
entity Initialization--><rect fill="#FEFECE" filter="url(#fcilsm0hrkqak)" height="36.2969" style="stroke: #A80036; stroke-width: 1.5;" width="99" x="437.5" y="301.9531"/><rect fill="#FEFECE" height="5" style="stroke: #A80036; stroke-width: 1.5;" width="10" x="432.5" y="306.9531"/><rect fill="#FEFECE" height="5" style="stroke: #A80036; stroke-width: 1.5;" width="10" x="432.5" y="328.25"/><text fill="#000000" font-family="sans-serif" font-size="14" lengthAdjust="spacingAndGlyphs" textLength="79" x="447.5" y="324.9482">Initialization</text><!--MD5=[0a2c5062d38aa8ad5371525f9dba8bae]
entity WriteToDisplayBuffers--><rect fill="#FEFECE" filter="url(#fcilsm0hrkqak)" height="36.2969" style="stroke: #A80036; stroke-width: 1.5;" width="171" x="231.5" y="301.9531"/><rect fill="#FEFECE" height="5" style="stroke: #A80036; stroke-width: 1.5;" width="10" x="226.5" y="306.9531"/><rect fill="#FEFECE" height="5" style="stroke: #A80036; stroke-width: 1.5;" width="10" x="226.5" y="328.25"/><text fill="#000000" font-family="sans-serif" font-size="14" lengthAdjust="spacingAndGlyphs" textLength="151" x="241.5" y="324.9482">WriteToDisplayBuffers</text><!--MD5=[f17a902bfed6a88845be0900ff5221e6]
entity Hardware IO--><rect fill="#FEFECE" filter="url(#fcilsm0hrkqak)" height="36.2969" style="stroke: #A80036; stroke-width: 1.5;" width="103" x="697.5" y="412.9531"/><rect fill="#FEFECE" height="5" style="stroke: #A80036; stroke-width: 1.5;" width="10" x="692.5" y="417.9531"/><rect fill="#FEFECE" height="5" style="stroke: #A80036; stroke-width: 1.5;" width="10" x="692.5" y="439.25"/><text fill="#000000" font-family="sans-serif" font-size="14" lengthAdjust="spacingAndGlyphs" textLength="83" x="707.5" y="435.9482">Hardware IO</text><!--MD5=[8ae48ff6af5725c0a16a47def2be82f1]
entity AppendToDisplayBuffers--><rect fill="#FEFECE" filter="url(#fcilsm0hrkqak)" height="36.2969" style="stroke: #A80036; stroke-width: 1.5;" width="190" x="6" y="301.9531"/><rect fill="#FEFECE" height="5" style="stroke: #A80036; stroke-width: 1.5;" width="10" x="1" y="306.9531"/><rect fill="#FEFECE" height="5" style="stroke: #A80036; stroke-width: 1.5;" width="10" x="1" y="328.25"/><text fill="#000000" font-family="sans-serif" font-size="14" lengthAdjust="spacingAndGlyphs" textLength="170" x="16" y="324.9482">AppendToDisplayBuffers</text><!--MD5=[ff8fad44bb8608a4e5d30dc2985dbf7f]
reverse link Mouse to Windowprocedure--><path d="M707.389,120.7291 C717.201,141.2971 731.723,171.7371 740.76,190.6821 " fill="none" id="Mouse&lt;-Windowprocedure" style="stroke: #A80036; stroke-width: 1.0;"/><polygon fill="#A80036" points="705.125,115.9841,705.3899,125.8294,707.2778,120.4969,712.6103,122.3849,705.125,115.9841" style="stroke: #A80036; stroke-width: 1.0;"/><!--MD5=[f70c824c233a44d69a2e916a86444c6b]
reverse link Display to Windowprocedure--><path d="M789.811,120.7291 C780.188,141.2971 765.945,171.7371 757.081,190.6821 " fill="none" id="Display&lt;-Windowprocedure" style="stroke: #A80036; stroke-width: 1.0;"/><polygon fill="#A80036" points="792.031,115.9841,784.5925,122.4392,789.9111,120.5125,791.8379,125.8311,792.031,115.9841" style="stroke: #A80036; stroke-width: 1.0;"/><!--MD5=[e4ce3ce2a959f3394c131255dd2ea7c6]
link Windowprocedure to CoinHandelingProcedure--><path d="M822.222,212.1561 C897.693,216.1591 1017.97,227.4041 1117,258.9531 C1146.97,268.5001 1178.41,285.6641 1200.67,299.1951 " fill="none" id="Windowprocedure-&gt;CoinHandelingProcedure" style="stroke: #A80036; stroke-width: 1.0;"/><polygon fill="#A80036" points="1204.99,301.8491,1199.43,293.7198,1200.7345,299.2242,1195.2301,300.5287,1204.99,301.8491" style="stroke: #A80036; stroke-width: 1.0;"/><!--MD5=[033ed1add2041d17da30e1df30df0df6]
link Windowprocedure to PayWithDebitCard--><path d="M822.241,222.7421 C858.377,230.5631 902.031,242.3201 939,258.9531 C962.029,269.3141 985.617,285.5191 1002.718,298.4771 " fill="none" id="Windowprocedure-&gt;PayWithDebitCard" style="stroke: #A80036; stroke-width: 1.0;"/><polygon fill="#A80036" points="1006.92,301.6961,1002.2062,293.0486,1002.9502,298.6563,997.3425,299.4002,1006.92,301.6961" style="stroke: #A80036; stroke-width: 1.0;"/><!--MD5=[c22b73f063bd9caccca8d20c6153a42e]
link Windowprocedure to UserDrinkSelection--><path d="M764,226.9841 C780.809,246.0701 808.083,277.0371 826.277,297.6941 " fill="none" id="Windowprocedure-&gt;UserDrinkSelection" style="stroke: #A80036; stroke-width: 1.0;"/><polygon fill="#A80036" points="829.789,301.6821,826.8419,292.2845,826.4842,297.9301,820.8386,297.5723,829.789,301.6821" style="stroke: #A80036; stroke-width: 1.0;"/><!--MD5=[4596b29a04fa9ce4e34484b238f24e7a]
link Windowprocedure to WriteToScreenbuffer--><path d="M734,226.9841 C717.191,246.0701 689.917,277.0371 671.723,297.6941 " fill="none" id="Windowprocedure-&gt;WriteToScreenbuffer" style="stroke: #A80036; stroke-width: 1.0;"/><polygon fill="#A80036" points="668.211,301.6821,677.1614,297.5723,671.5158,297.9301,671.1581,292.2845,668.211,301.6821" style="stroke: #A80036; stroke-width: 1.0;"/><!--MD5=[7e7125927df00fa74eb409493dd2a0d1]
link Windowprocedure to Initialization--><path d="M675.999,219.9281 C638.306,227.1331 592.489,239.1881 555,258.9531 C536.32,268.8011 518.548,284.8001 505.86,297.8011 " fill="none" id="Windowprocedure-&gt;Initialization" style="stroke: #A80036; stroke-width: 1.0;"/><polygon fill="#A80036" points="502.091,301.7291,511.2086,298.0049,505.5529,298.1215,505.4363,292.4658,502.091,301.7291" style="stroke: #A80036; stroke-width: 1.0;"/><!--MD5=[e74af35a0440eb677edbdbb411815184]
link Windowprocedure to AppendToDisplayBuffers--><path d="M675.748,213.1301 C550.216,219.1651 299.354,233.9651 215,258.9531 C184.643,267.9461 153,285.3401 130.776,299.0941 " fill="none" id="Windowprocedure-&gt;AppendToDisplayBuffers" style="stroke: #A80036; stroke-width: 1.0;"/><polygon fill="#A80036" points="126.46,301.7931,136.2116,300.4128,130.6993,299.1421,131.97,293.6298,126.46,301.7931" style="stroke: #A80036; stroke-width: 1.0;"/><!--MD5=[0d9245daaf35b08a5e285c5c4be273a7]
link CoinHandelingProcedure to Hardware IO--><path d="M1188.76,338.0001 C1167.49,346.1041 1141.16,355.4221 1117,361.9531 C1008.59,391.2559 878.806,411.9891 805.936,422.3661 " fill="none" id="CoinHandelingProcedure-&gt;Hardware IO" style="stroke: #A80036; stroke-width: 1.0;"/><polygon fill="#A80036" points="800.789,423.0953,810.2611,425.7932,805.7396,422.3939,809.1389,417.8723,800.789,423.0953" style="stroke: #A80036; stroke-width: 1.0;"/><!--MD5=[39e1b1ed652afba47ebd29d38e1e9ba7]
link PayWithDebitCard to Hardware IO--><path d="M992.801,338.0351 C976.567,345.6891 956.954,354.6211 939,361.9531 C894.766,380.0161 843.74,398.1322 805.712,411.1183 " fill="none" id="PayWithDebitCard-&gt;Hardware IO" style="stroke: #A80036; stroke-width: 1.0;"/><polygon fill="#A80036" points="800.671,412.836,810.4802,413.7191,805.4037,411.2232,807.8997,406.1468,800.671,412.836" style="stroke: #A80036; stroke-width: 1.0;"/><!--MD5=[98c0d9a4c9497a7c9099c4d0c118f6b7]
link UserDrinkSelection to Hardware IO--><path d="M830,337.9841 C813.191,357.0701 785.917,388.0367 767.723,408.6943 " fill="none" id="UserDrinkSelection-&gt;Hardware IO" style="stroke: #A80036; stroke-width: 1.0;"/><polygon fill="#A80036" points="764.211,412.6817,773.1617,408.5727,767.5162,408.9299,767.1589,403.2844,764.211,412.6817" style="stroke: #A80036; stroke-width: 1.0;"/><!--MD5=[b675ab731d60f4ad6be6ea26d564da47]
link WriteToScreenbuffer to Hardware IO--><path d="M668,337.9841 C684.809,357.0701 712.083,388.0367 730.277,408.6943 " fill="none" id="WriteToScreenbuffer-&gt;Hardware IO" style="stroke: #A80036; stroke-width: 1.0;"/><polygon fill="#A80036" points="733.789,412.6817,730.8411,403.2844,730.4838,408.9299,724.8383,408.5727,733.789,412.6817" style="stroke: #A80036; stroke-width: 1.0;"/><!--MD5=[c8cfaefd150e42cc0ba791bbc78de7c4]
link Initialization to Hardware IO--><path d="M512.465,338.0151 C524.949,345.9311 540.406,355.0851 555,361.9531 C599.658,382.9692 652.679,401.123 691.997,413.374 " fill="none" id="Initialization-&gt;Hardware IO" style="stroke: #A80036; stroke-width: 1.0;"/><polygon fill="#A80036" points="697.208,414.9882,689.7952,408.5036,692.432,413.5083,687.4273,416.1451,697.208,414.9882" style="stroke: #A80036; stroke-width: 1.0;"/><!--MD5=[bb1ee6cda9025b9e11e5d2bb63c979d7]
link AppendToDisplayBuffers to Hardware IO--><path d="M141.498,337.9631 C162.991,346.3621 190.051,355.9551 215,361.9531 C385.729,403.0016 593.496,420.4252 691.968,426.791 " fill="none" id="AppendToDisplayBuffers-&gt;Hardware IO" style="stroke: #A80036; stroke-width: 1.0;"/><polygon fill="#A80036" points="697.148,427.1221,688.4211,422.5568,692.1582,426.8036,687.9114,430.5406,697.148,427.1221" style="stroke: #A80036; stroke-width: 1.0;"/><!--MD5=[fcbedfd826372a29232820e768dfdf8f]
@startuml


title Cola Vending Machine 5 GUI Edition

package "User Interface Layer" {
    [Display]
    [Mouse]
}

package "System Control Layer" {
    [Windowprocedure] #Cyan
}

package "Subsystems Layer" {
    [CoinHandelingProcedure]
    [PayWithDebitCard]
    [UserDrinkSelection]
    [WriteToScreenbuffer]
    [Initialization]
    [WriteToDisplayBuffers]
}

package "Hardware Abstraction Layer" {
    [Hardware IO]
}

[Windowprocedure] -up-> [Mouse]
[Windowprocedure] -up-> [Display]

[Windowprocedure] -down-> [CoinHandelingProcedure]
[Windowprocedure] -down-> [PayWithDebitCard]
[Windowprocedure] -down-> [UserDrinkSelection]
[Windowprocedure] -down-> [WriteToScreenbuffer]
[Windowprocedure] -down-> [Initialization]
[Windowprocedure] -down-> [AppendToDisplayBuffers]

[CoinHandelingProcedure] -down-> [Hardware IO]
[PayWithDebitCard] -down-> [Hardware IO]
[UserDrinkSelection] -down-> [Hardware IO]
[WriteToScreenbuffer] -down-> [Hardware IO]
[Initialization] -down-> [Hardware IO]
[AppendToDisplayBuffers] -down-> [Hardware IO]
@enduml

PlantUML version 1.2020.00(Sat Jan 11 12:30:53 UTC 2020)
(GPL source distribution)
Java Runtime: Java(TM) SE Runtime Environment
JVM: Java HotSpot(TM) 64-Bit Server VM
Java Version: 1.7.0_25-b15
Operating System: Linux
Default Encoding: UTF-8
Language: en
Country: US
--></g></svg>