<?xml version="1.0" encoding="UTF-8" standalone="no"?><svg xmlns="http://www.w3.org/2000/svg" xmlns:xlink="http://www.w3.org/1999/xlink" contentScriptType="application/ecmascript" contentStyleType="text/css" height="476px" preserveAspectRatio="none" style="width:926px;height:476px;" version="1.1" viewBox="0 0 926 476" width="926px" zoomAndPan="magnify"><defs><filter height="300%" id="f60g2qp4eu3zq" width="300%" x="-1" y="-1"><feGaussianBlur result="blurOut" stdDeviation="2.0"/><feColorMatrix in="blurOut" result="blurOut2" type="matrix" values="0 0 0 0 0 0 0 0 0 0 0 0 0 0 0 0 0 0 .4 0"/><feOffset dx="4.0" dy="4.0" in="blurOut2" result="blurOut3"/><feBlend in="SourceGraphic" in2="blurOut3" mode="normal"/></filter></defs><g><text fill="#000000" font-family="sans-serif" font-size="18" lengthAdjust="spacingAndGlyphs" textLength="320" x="309" y="16.708">Cola Vending Machine 5 GUI Edition</text><!--MD5=[edc8b14840189a17816f251cdfe15285]
cluster User Interface Layer--><polygon fill="#FFFFFF" filter="url(#f60g2qp4eu3zq)" points="356,44.9531,524,44.9531,531,67.25,715,67.25,715,131.9531,356,131.9531,356,44.9531" style="stroke: #000000; stroke-width: 1.5;"/><line style="stroke: #000000; stroke-width: 1.5;" x1="356" x2="531" y1="67.25" y2="67.25"/><text fill="#000000" font-family="sans-serif" font-size="14" font-weight="bold" lengthAdjust="spacingAndGlyphs" textLength="162" x="360" y="59.9482">User Interface Layer</text><!--MD5=[28a4330076c6db094a00bc6d9333ecd7]
cluster System Control Layer--><polygon fill="#FFFFFF" filter="url(#f60g2qp4eu3zq)" points="416,155.9531,592,155.9531,599,178.25,602,178.25,602,242.9531,416,242.9531,416,155.9531" style="stroke: #000000; stroke-width: 1.5;"/><line style="stroke: #000000; stroke-width: 1.5;" x1="416" x2="599" y1="178.25" y2="178.25"/><text fill="#000000" font-family="sans-serif" font-size="14" font-weight="bold" lengthAdjust="spacingAndGlyphs" textLength="170" x="420" y="170.9482">System Control Layer</text><!--MD5=[7e0f5f35693f8121baa8c6af3941272e]
cluster Subsystems Layer--><polygon fill="#FFFFFF" filter="url(#f60g2qp4eu3zq)" points="22,266.9531,173,266.9531,180,289.25,904,289.25,904,353.9531,22,353.9531,22,266.9531" style="stroke: #000000; stroke-width: 1.5;"/><line style="stroke: #000000; stroke-width: 1.5;" x1="22" x2="180" y1="289.25" y2="289.25"/><text fill="#000000" font-family="sans-serif" font-size="14" font-weight="bold" lengthAdjust="spacingAndGlyphs" textLength="145" x="26" y="281.9482">Subsystems Layer</text><!--MD5=[6b9f495ef636946ef962100eb5d9d4bd]
cluster Hardware Abstraction Layer--><polygon fill="#FFFFFF" filter="url(#f60g2qp4eu3zq)" points="390,377.9531,618,377.9531,625,400.25,628,400.25,628,464.9531,390,464.9531,390,377.9531" style="stroke: #000000; stroke-width: 1.5;"/><line style="stroke: #000000; stroke-width: 1.5;" x1="390" x2="625" y1="400.25" y2="400.25"/><text fill="#000000" font-family="sans-serif" font-size="14" font-weight="bold" lengthAdjust="spacingAndGlyphs" textLength="222" x="394" y="392.9482">Hardware Abstraction Layer</text><!--MD5=[70d610b3ca277a70fbee293757a13e46]
entity Display--><rect fill="#FEFECE" filter="url(#f60g2qp4eu3zq)" height="36.2969" style="stroke: #A80036; stroke-width: 1.5;" width="69" x="474.5" y="79.9531"/><rect fill="#FEFECE" height="5" style="stroke: #A80036; stroke-width: 1.5;" width="10" x="469.5" y="84.9531"/><rect fill="#FEFECE" height="5" style="stroke: #A80036; stroke-width: 1.5;" width="10" x="469.5" y="106.25"/><text fill="#000000" font-family="sans-serif" font-size="14" lengthAdjust="spacingAndGlyphs" textLength="49" x="484.5" y="102.9482">Display</text><!--MD5=[538abce86eac3d5373520d546e64419d]
entity Debug Display--><rect fill="#FEFECE" filter="url(#f60g2qp4eu3zq)" height="36.2969" style="stroke: #A80036; stroke-width: 1.5;" width="120" x="579" y="79.9531"/><rect fill="#FEFECE" height="5" style="stroke: #A80036; stroke-width: 1.5;" width="10" x="574" y="84.9531"/><rect fill="#FEFECE" height="5" style="stroke: #A80036; stroke-width: 1.5;" width="10" x="574" y="106.25"/><text fill="#000000" font-family="sans-serif" font-size="14" lengthAdjust="spacingAndGlyphs" textLength="100" x="589" y="102.9482">Debug Display</text><!--MD5=[bc2fd5651783ca18485163f10b4d2093]
entity Mouse--><rect fill="#FEFECE" filter="url(#f60g2qp4eu3zq)" height="36.2969" style="stroke: #A80036; stroke-width: 1.5;" width="67" x="372.5" y="79.9531"/><rect fill="#FEFECE" height="5" style="stroke: #A80036; stroke-width: 1.5;" width="10" x="367.5" y="84.9531"/><rect fill="#FEFECE" height="5" style="stroke: #A80036; stroke-width: 1.5;" width="10" x="367.5" y="106.25"/><text fill="#000000" font-family="sans-serif" font-size="14" lengthAdjust="spacingAndGlyphs" textLength="47" x="382.5" y="102.9482">Mouse</text><!--MD5=[62325d60dc3be6e67059b26164a6db3f]
entity Windowprocedure--><rect fill="#00FFFF" filter="url(#f60g2qp4eu3zq)" height="36.2969" style="stroke: #A80036; stroke-width: 1.5;" width="146" x="436" y="190.9531"/><rect fill="#00FFFF" height="5" style="stroke: #A80036; stroke-width: 1.5;" width="10" x="431" y="195.9531"/><rect fill="#00FFFF" height="5" style="stroke: #A80036; stroke-width: 1.5;" width="10" x="431" y="217.25"/><text fill="#000000" font-family="sans-serif" font-size="14" lengthAdjust="spacingAndGlyphs" textLength="126" x="446" y="213.9482">Windowprocedure</text><!--MD5=[f2b76a28c943043b4ce7a38a3ab3680a]
entity Coin handler--><rect fill="#FEFECE" filter="url(#f60g2qp4eu3zq)" height="36.2969" style="stroke: #A80036; stroke-width: 1.5;" width="107" x="780.5" y="301.9531"/><rect fill="#FEFECE" height="5" style="stroke: #A80036; stroke-width: 1.5;" width="10" x="775.5" y="306.9531"/><rect fill="#FEFECE" height="5" style="stroke: #A80036; stroke-width: 1.5;" width="10" x="775.5" y="328.25"/><text fill="#000000" font-family="sans-serif" font-size="14" lengthAdjust="spacingAndGlyphs" textLength="87" x="790.5" y="324.9482">Coin handler</text><!--MD5=[c9f6791c59ba50c4c31e05c2c1c46526]
entity Debitcard reader--><rect fill="#FEFECE" filter="url(#f60g2qp4eu3zq)" height="36.2969" style="stroke: #A80036; stroke-width: 1.5;" width="136" x="609" y="301.9531"/><rect fill="#FEFECE" height="5" style="stroke: #A80036; stroke-width: 1.5;" width="10" x="604" y="306.9531"/><rect fill="#FEFECE" height="5" style="stroke: #A80036; stroke-width: 1.5;" width="10" x="604" y="328.25"/><text fill="#000000" font-family="sans-serif" font-size="14" lengthAdjust="spacingAndGlyphs" textLength="116" x="619" y="324.9482">Debitcard reader</text><!--MD5=[837a255cafe1e16b4a4632b1085f1361]
entity Drink dispenser--><rect fill="#FEFECE" filter="url(#f60g2qp4eu3zq)" height="36.2969" style="stroke: #A80036; stroke-width: 1.5;" width="129" x="444.5" y="301.9531"/><rect fill="#FEFECE" height="5" style="stroke: #A80036; stroke-width: 1.5;" width="10" x="439.5" y="306.9531"/><rect fill="#FEFECE" height="5" style="stroke: #A80036; stroke-width: 1.5;" width="10" x="439.5" y="328.25"/><text fill="#000000" font-family="sans-serif" font-size="14" lengthAdjust="spacingAndGlyphs" textLength="109" x="454.5" y="324.9482">Drink dispenser</text><!--MD5=[b0dea38a0d73891617201df0b4efa60d]
entity Change dispenser--><rect fill="#FEFECE" filter="url(#f60g2qp4eu3zq)" height="36.2969" style="stroke: #A80036; stroke-width: 1.5;" width="147" x="262.5" y="301.9531"/><rect fill="#FEFECE" height="5" style="stroke: #A80036; stroke-width: 1.5;" width="10" x="257.5" y="306.9531"/><rect fill="#FEFECE" height="5" style="stroke: #A80036; stroke-width: 1.5;" width="10" x="257.5" y="328.25"/><text fill="#000000" font-family="sans-serif" font-size="14" lengthAdjust="spacingAndGlyphs" textLength="127" x="272.5" y="324.9482">Change dispenser</text><!--MD5=[7e1dd0e8fce21816962640645e7b00bc]
entity Drink selections buttons--><rect fill="#FEFECE" filter="url(#f60g2qp4eu3zq)" height="36.2969" style="stroke: #A80036; stroke-width: 1.5;" width="189" x="38.5" y="301.9531"/><rect fill="#FEFECE" height="5" style="stroke: #A80036; stroke-width: 1.5;" width="10" x="33.5" y="306.9531"/><rect fill="#FEFECE" height="5" style="stroke: #A80036; stroke-width: 1.5;" width="10" x="33.5" y="328.25"/><text fill="#000000" font-family="sans-serif" font-size="14" lengthAdjust="spacingAndGlyphs" textLength="169" x="48.5" y="324.9482">Drink selections buttons</text><!--MD5=[f17a902bfed6a88845be0900ff5221e6]
entity Hardware IO--><rect fill="#FEFECE" filter="url(#f60g2qp4eu3zq)" height="36.2969" style="stroke: #A80036; stroke-width: 1.5;" width="103" x="457.5" y="412.9531"/><rect fill="#FEFECE" height="5" style="stroke: #A80036; stroke-width: 1.5;" width="10" x="452.5" y="417.9531"/><rect fill="#FEFECE" height="5" style="stroke: #A80036; stroke-width: 1.5;" width="10" x="452.5" y="439.25"/><text fill="#000000" font-family="sans-serif" font-size="14" lengthAdjust="spacingAndGlyphs" textLength="83" x="467.5" y="435.9482">Hardware IO</text><!--MD5=[ff8fad44bb8608a4e5d30dc2985dbf7f]
reverse link Mouse to Windowprocedure--><path d="M425.602,119.6971 C445.039,140.2661 474.476,171.4171 492.679,190.6821 " fill="none" id="Mouse&lt;-Windowprocedure" style="stroke: #A80036; stroke-width: 1.0;"/><polygon fill="#A80036" points="422.094,115.9841,425.3681,125.2728,425.5281,119.6182,431.1827,119.7782,422.094,115.9841" style="stroke: #A80036; stroke-width: 1.0;"/><!--MD5=[f70c824c233a44d69a2e916a86444c6b]
reverse link Display to Windowprocedure--><path d="M509,120.9901 C509,141.5531 509,171.8171 509,190.6821 " fill="none" id="Display&lt;-Windowprocedure" style="stroke: #A80036; stroke-width: 1.0;"/><polygon fill="#A80036" points="509,115.9841,505,124.9841,509,120.9841,513,124.9841,509,115.9841" style="stroke: #A80036; stroke-width: 1.0;"/><!--MD5=[9b96c93feee69fe611d35c34152329cd]
reverse link Debug Display to Windowprocedure--><path d="M614.565,119.4411 C590.036,140.0071 552.67,171.3371 529.599,190.6821 " fill="none" id="Debug Display&lt;-Windowprocedure" style="stroke: #A80036; stroke-width: 1.0;"/><polygon fill="#A80036" points="618.688,115.9841,609.221,118.6999,614.856,119.196,614.36,124.8311,618.688,115.9841" style="stroke: #A80036; stroke-width: 1.0;"/><!--MD5=[988c799358f79052688a7b654da127a0]
link Windowprocedure to Coin handler--><path d="M582.135,214.1941 C634.622,219.5421 705.874,231.6321 763,258.9531 C782.829,268.4361 801.655,284.8111 814.933,298.0611 " fill="none" id="Windowprocedure-&gt;Coin handler" style="stroke: #A80036; stroke-width: 1.0;"/><polygon fill="#A80036" points="818.527,301.7071,815.0566,292.49,815.0166,298.1467,809.3598,298.1067,818.527,301.7071" style="stroke: #A80036; stroke-width: 1.0;"/><!--MD5=[818ed9c5f4b7cdc930ba8efd75e8d9e6]
link Windowprocedure to Debitcard reader--><path d="M538.915,227.1461 C554.589,236.3251 574.009,247.9691 591,258.9531 C610.873,271.8001 632.736,287.0701 649.446,298.9901 " fill="none" id="Windowprocedure-&gt;Debitcard reader" style="stroke: #A80036; stroke-width: 1.0;"/><polygon fill="#A80036" points="653.579,301.9441,648.5851,293.4552,649.512,299.0356,643.9316,299.9625,653.579,301.9441" style="stroke: #A80036; stroke-width: 1.0;"/><!--MD5=[1aeb851be80064f27188171b6f9512b2]
link Windowprocedure to Drink dispenser--><path d="M509,226.9841 C509,245.7511 509,276.0081 509,296.6531 " fill="none" id="Windowprocedure-&gt;Drink dispenser" style="stroke: #A80036; stroke-width: 1.0;"/><polygon fill="#A80036" points="509,301.6821,513,292.6821,509,296.6821,505,292.6821,509,301.6821" style="stroke: #A80036; stroke-width: 1.0;"/><!--MD5=[11e4803515fceb41ed2d3ad18fcc4097]
link Windowprocedure to Change dispenser--><path d="M479.587,227.1031 C463.879,236.3691 444.274,248.1041 427,258.9531 C406.317,271.9421 383.36,287.0841 365.678,298.9071 " fill="none" id="Windowprocedure-&gt;Change dispenser" style="stroke: #A80036; stroke-width: 1.0;"/><polygon fill="#A80036" points="361.301,301.8381,371.0049,300.1548,365.4557,299.0564,366.5542,293.5072,361.301,301.8381" style="stroke: #A80036; stroke-width: 1.0;"/><!--MD5=[37bc0616f38092889c127de7478040ef]
link Windowprocedure to Drink selections buttons--><path d="M435.726,217.4041 C381.853,224.3461 307.457,237.0241 245,258.9531 C216.242,269.0501 185.9,285.7271 164.062,298.9391 " fill="none" id="Windowprocedure-&gt;Drink selections buttons" style="stroke: #A80036; stroke-width: 1.0;"/><polygon fill="#A80036" points="159.535,301.7021,169.3013,300.4293,163.8033,299.098,165.1347,293.6,159.535,301.7021" style="stroke: #A80036; stroke-width: 1.0;"/><!--MD5=[c60cdd70874a71caf86cff507abf36ef]
link Coin handler to Hardware IO--><path d="M808.208,338.0431 C795.092,346.1571 778.65,355.4721 763,361.9531 C697.627,389.0266 618.302,408.2441 565.885,419.1937 " fill="none" id="Coin handler-&gt;Hardware IO" style="stroke: #A80036; stroke-width: 1.0;"/><polygon fill="#A80036" points="560.898,420.2276,570.5223,422.3187,565.794,419.2133,568.8994,414.4851,560.898,420.2276" style="stroke: #A80036; stroke-width: 1.0;"/><!--MD5=[fe531c4a866779088a1a0d3857893605]
link Debitcard reader to Hardware IO--><path d="M650.75,337.9841 C620.756,357.4451 571.722,389.2587 539.907,409.9003 " fill="none" id="Debitcard reader-&gt;Hardware IO" style="stroke: #A80036; stroke-width: 1.0;"/><polygon fill="#A80036" points="535.342,412.8619,545.0692,411.3189,539.5365,410.1405,540.7149,404.6077,535.342,412.8619" style="stroke: #A80036; stroke-width: 1.0;"/><!--MD5=[df25925875c33a0c12008224fcc2552b]
link Drink dispenser to Hardware IO--><path d="M509,337.9841 C509,356.7511 509,387.0078 509,407.6529 " fill="none" id="Drink dispenser-&gt;Hardware IO" style="stroke: #A80036; stroke-width: 1.0;"/><polygon fill="#A80036" points="509,412.6817,513,403.6817,509,407.6817,505,403.6817,509,412.6817" style="stroke: #A80036; stroke-width: 1.0;"/><!--MD5=[84b839db79b4adef6eb16e6add15d7e0]
link Change dispenser to Hardware IO--><path d="M363.031,337.9841 C394.045,357.5241 444.826,389.5197 477.575,410.1535 " fill="none" id="Change dispenser-&gt;Hardware IO" style="stroke: #A80036; stroke-width: 1.0;"/><polygon fill="#A80036" points="481.874,412.8619,476.3921,404.6797,477.6438,410.1963,472.1272,411.4481,481.874,412.8619" style="stroke: #A80036; stroke-width: 1.0;"/><!--MD5=[b1ce2a81a7ceef3aa890d29323171918]
link Drink selections buttons to Hardware IO--><path d="M176.541,338.0291 C197.135,345.8121 222.163,354.8511 245,361.9531 C315.708,383.9425 398.594,404.4524 452.363,417.0781 " fill="none" id="Drink selections buttons-&gt;Hardware IO" style="stroke: #A80036; stroke-width: 1.0;"/><polygon fill="#A80036" points="457.475,418.2751,449.6241,412.3285,452.6067,417.1351,447.8,420.1178,457.475,418.2751" style="stroke: #A80036; stroke-width: 1.0;"/><!--MD5=[47e59ef00dca332eeb735497318cf413]
@startuml


title Cola Vending Machine 5 GUI Edition

package "User Interface Layer" {
    [Display]
    [Debug Display]
    [Mouse]
}

package "System Control Layer" {
    [Windowprocedure] #Cyan
}

package "Subsystems Layer" {
    [Coin handler]
    [Debitcard reader]
    [Drink dispenser]
    [Change dispenser]
    [Drink selections buttons]
}

package "Hardware Abstraction Layer" {
    [Hardware IO]
}

[Windowprocedure] -up-> [Mouse]
[Windowprocedure] -up-> [Display]
[Windowprocedure] -up-> [Debug Display]

[Windowprocedure] -down-> [Coin handler]
[Windowprocedure] -down-> [Debitcard reader]
[Windowprocedure] -down-> [Drink dispenser]
[Windowprocedure] -down-> [Change dispenser]
[Windowprocedure] -down-> [Drink selections buttons]

[Coin handler] -down-> [Hardware IO]
[Debitcard reader] -down-> [Hardware IO]
[Drink dispenser] -down-> [Hardware IO]
[Change dispenser] -down-> [Hardware IO]
[Drink selections buttons] -down-> [Hardware IO]
@enduml

PlantUML version 1.2020.01beta5(Unknown compile time)
(GPL source distribution)
Java Runtime: Java(TM) SE Runtime Environment
JVM: Java HotSpot(TM) 64-Bit Server VM
Java Version: 1.7.0_25-b15
Operating System: Linux
Default Encoding: UTF-8
Language: en
Country: US
--></g></svg>