<?xml version="1.0" encoding="UTF-8" standalone="no"?><svg xmlns="http://www.w3.org/2000/svg" xmlns:xlink="http://www.w3.org/1999/xlink" contentScriptType="application/ecmascript" contentStyleType="text/css" height="476px" preserveAspectRatio="none" style="width:1144px;height:476px;" version="1.1" viewBox="0 0 1144 476" width="1144px" zoomAndPan="magnify"><defs><filter height="300%" id="f1druki1r6wk5n" width="300%" x="-1" y="-1"><feGaussianBlur result="blurOut" stdDeviation="2.0"/><feColorMatrix in="blurOut" result="blurOut2" type="matrix" values="0 0 0 0 0 0 0 0 0 0 0 0 0 0 0 0 0 0 .4 0"/><feOffset dx="4.0" dy="4.0" in="blurOut2" result="blurOut3"/><feBlend in="SourceGraphic" in2="blurOut3" mode="normal"/></filter></defs><g><text fill="#000000" font-family="sans-serif" font-size="18" lengthAdjust="spacingAndGlyphs" textLength="320" x="418" y="16.708">Cola Vending Machine 5 GUI Edition</text><!--MD5=[edc8b14840189a17816f251cdfe15285]
cluster User Interface Layer--><polygon fill="#FFFFFF" filter="url(#f1druki1r6wk5n)" points="500,44.9531,668,44.9531,675,67.25,704,67.25,704,131.9531,500,131.9531,500,44.9531" style="stroke: #000000; stroke-width: 1.5;"/><line style="stroke: #000000; stroke-width: 1.5;" x1="500" x2="675" y1="67.25" y2="67.25"/><text fill="#000000" font-family="sans-serif" font-size="14" font-weight="bold" lengthAdjust="spacingAndGlyphs" textLength="162" x="504" y="59.9482">User Interface Layer</text><!--MD5=[28a4330076c6db094a00bc6d9333ecd7]
cluster System Control Layer--><polygon fill="#FFFFFF" filter="url(#f1druki1r6wk5n)" points="509,155.9531,685,155.9531,692,178.25,695,178.25,695,242.9531,509,242.9531,509,155.9531" style="stroke: #000000; stroke-width: 1.5;"/><line style="stroke: #000000; stroke-width: 1.5;" x1="509" x2="692" y1="178.25" y2="178.25"/><text fill="#000000" font-family="sans-serif" font-size="14" font-weight="bold" lengthAdjust="spacingAndGlyphs" textLength="170" x="513" y="170.9482">System Control Layer</text><!--MD5=[7e0f5f35693f8121baa8c6af3941272e]
cluster Subsystems Layer--><polygon fill="#FFFFFF" filter="url(#f1druki1r6wk5n)" points="22,266.9531,173,266.9531,180,289.25,1122,289.25,1122,353.9531,22,353.9531,22,266.9531" style="stroke: #000000; stroke-width: 1.5;"/><line style="stroke: #000000; stroke-width: 1.5;" x1="22" x2="180" y1="289.25" y2="289.25"/><text fill="#000000" font-family="sans-serif" font-size="14" font-weight="bold" lengthAdjust="spacingAndGlyphs" textLength="145" x="26" y="281.9482">Subsystems Layer</text><!--MD5=[6b9f495ef636946ef962100eb5d9d4bd]
cluster Hardware Abstraction Layer--><polygon fill="#FFFFFF" filter="url(#f1druki1r6wk5n)" points="483,377.9531,711,377.9531,718,400.25,721,400.25,721,464.9531,483,464.9531,483,377.9531" style="stroke: #000000; stroke-width: 1.5;"/><line style="stroke: #000000; stroke-width: 1.5;" x1="483" x2="718" y1="400.25" y2="400.25"/><text fill="#000000" font-family="sans-serif" font-size="14" font-weight="bold" lengthAdjust="spacingAndGlyphs" textLength="222" x="487" y="392.9482">Hardware Abstraction Layer</text><!--MD5=[70d610b3ca277a70fbee293757a13e46]
entity Display--><rect fill="#FEFECE" filter="url(#f1druki1r6wk5n)" height="36.2969" style="stroke: #A80036; stroke-width: 1.5;" width="69" x="618.5" y="79.9531"/><rect fill="#FEFECE" height="5" style="stroke: #A80036; stroke-width: 1.5;" width="10" x="613.5" y="84.9531"/><rect fill="#FEFECE" height="5" style="stroke: #A80036; stroke-width: 1.5;" width="10" x="613.5" y="106.25"/><text fill="#000000" font-family="sans-serif" font-size="14" lengthAdjust="spacingAndGlyphs" textLength="49" x="628.5" y="102.9482">Display</text><!--MD5=[bc2fd5651783ca18485163f10b4d2093]
entity Mouse--><rect fill="#FEFECE" filter="url(#f1druki1r6wk5n)" height="36.2969" style="stroke: #A80036; stroke-width: 1.5;" width="67" x="516.5" y="79.9531"/><rect fill="#FEFECE" height="5" style="stroke: #A80036; stroke-width: 1.5;" width="10" x="511.5" y="84.9531"/><rect fill="#FEFECE" height="5" style="stroke: #A80036; stroke-width: 1.5;" width="10" x="511.5" y="106.25"/><text fill="#000000" font-family="sans-serif" font-size="14" lengthAdjust="spacingAndGlyphs" textLength="47" x="526.5" y="102.9482">Mouse</text><!--MD5=[62325d60dc3be6e67059b26164a6db3f]
entity Windowprocedure--><rect fill="#00FFFF" filter="url(#f1druki1r6wk5n)" height="36.2969" style="stroke: #A80036; stroke-width: 1.5;" width="146" x="529" y="190.9531"/><rect fill="#00FFFF" height="5" style="stroke: #A80036; stroke-width: 1.5;" width="10" x="524" y="195.9531"/><rect fill="#00FFFF" height="5" style="stroke: #A80036; stroke-width: 1.5;" width="10" x="524" y="217.25"/><text fill="#000000" font-family="sans-serif" font-size="14" lengthAdjust="spacingAndGlyphs" textLength="126" x="539" y="213.9482">Windowprocedure</text><!--MD5=[a461d73cf23f43e01b119c8cda057e1d]
entity Coin handeling--><rect fill="#FEFECE" filter="url(#f1druki1r6wk5n)" height="36.2969" style="stroke: #A80036; stroke-width: 1.5;" width="123" x="982.5" y="301.9531"/><rect fill="#FEFECE" height="5" style="stroke: #A80036; stroke-width: 1.5;" width="10" x="977.5" y="306.9531"/><rect fill="#FEFECE" height="5" style="stroke: #A80036; stroke-width: 1.5;" width="10" x="977.5" y="328.25"/><text fill="#000000" font-family="sans-serif" font-size="14" lengthAdjust="spacingAndGlyphs" textLength="103" x="992.5" y="324.9482">Coin handeling</text><!--MD5=[61d34a6a875525584987334df6276b35]
entity Debitcard functionality--><rect fill="#FEFECE" filter="url(#f1druki1r6wk5n)" height="36.2969" style="stroke: #A80036; stroke-width: 1.5;" width="173" x="774.5" y="301.9531"/><rect fill="#FEFECE" height="5" style="stroke: #A80036; stroke-width: 1.5;" width="10" x="769.5" y="306.9531"/><rect fill="#FEFECE" height="5" style="stroke: #A80036; stroke-width: 1.5;" width="10" x="769.5" y="328.25"/><text fill="#000000" font-family="sans-serif" font-size="14" lengthAdjust="spacingAndGlyphs" textLength="153" x="784.5" y="324.9482">Debitcard functionality</text><!--MD5=[310f889aaadbc92c39165164f49b58f8]
entity Drink selection--><rect fill="#FEFECE" filter="url(#f1druki1r6wk5n)" height="36.2969" style="stroke: #A80036; stroke-width: 1.5;" width="123" x="616.5" y="301.9531"/><rect fill="#FEFECE" height="5" style="stroke: #A80036; stroke-width: 1.5;" width="10" x="611.5" y="306.9531"/><rect fill="#FEFECE" height="5" style="stroke: #A80036; stroke-width: 1.5;" width="10" x="611.5" y="328.25"/><text fill="#000000" font-family="sans-serif" font-size="14" lengthAdjust="spacingAndGlyphs" textLength="103" x="626.5" y="324.9482">Drink selection</text><!--MD5=[77f0f42d72d58a0d6bb1b115d55e16e5]
entity Screenbuffer--><rect fill="#FEFECE" filter="url(#f1druki1r6wk5n)" height="36.2969" style="stroke: #A80036; stroke-width: 1.5;" width="109" x="472.5" y="301.9531"/><rect fill="#FEFECE" height="5" style="stroke: #A80036; stroke-width: 1.5;" width="10" x="467.5" y="306.9531"/><rect fill="#FEFECE" height="5" style="stroke: #A80036; stroke-width: 1.5;" width="10" x="467.5" y="328.25"/><text fill="#000000" font-family="sans-serif" font-size="14" lengthAdjust="spacingAndGlyphs" textLength="89" x="482.5" y="324.9482">Screenbuffer</text><!--MD5=[84f671e4200bf3d16a376d71add776df]
entity Write to displaybuffers--><rect fill="#FEFECE" filter="url(#f1druki1r6wk5n)" height="36.2969" style="stroke: #A80036; stroke-width: 1.5;" width="172" x="265" y="301.9531"/><rect fill="#FEFECE" height="5" style="stroke: #A80036; stroke-width: 1.5;" width="10" x="260" y="306.9531"/><rect fill="#FEFECE" height="5" style="stroke: #A80036; stroke-width: 1.5;" width="10" x="260" y="328.25"/><text fill="#000000" font-family="sans-serif" font-size="14" lengthAdjust="spacingAndGlyphs" textLength="152" x="275" y="324.9482">Write to displaybuffers</text><!--MD5=[5b4210dc0eeaf70f1addd011921fdd19]
entity Append to displaybuffers--><rect fill="#FEFECE" filter="url(#f1druki1r6wk5n)" height="36.2969" style="stroke: #A80036; stroke-width: 1.5;" width="191" x="38.5" y="301.9531"/><rect fill="#FEFECE" height="5" style="stroke: #A80036; stroke-width: 1.5;" width="10" x="33.5" y="306.9531"/><rect fill="#FEFECE" height="5" style="stroke: #A80036; stroke-width: 1.5;" width="10" x="33.5" y="328.25"/><text fill="#000000" font-family="sans-serif" font-size="14" lengthAdjust="spacingAndGlyphs" textLength="171" x="48.5" y="324.9482">Append to displaybuffers</text><!--MD5=[f17a902bfed6a88845be0900ff5221e6]
entity Hardware IO--><rect fill="#FEFECE" filter="url(#f1druki1r6wk5n)" height="36.2969" style="stroke: #A80036; stroke-width: 1.5;" width="103" x="550.5" y="412.9531"/><rect fill="#FEFECE" height="5" style="stroke: #A80036; stroke-width: 1.5;" width="10" x="545.5" y="417.9531"/><rect fill="#FEFECE" height="5" style="stroke: #A80036; stroke-width: 1.5;" width="10" x="545.5" y="439.25"/><text fill="#000000" font-family="sans-serif" font-size="14" lengthAdjust="spacingAndGlyphs" textLength="83" x="560.5" y="435.9482">Hardware IO</text><!--MD5=[ff8fad44bb8608a4e5d30dc2985dbf7f]
reverse link Mouse to Windowprocedure--><path d="M560.389,120.7291 C570.201,141.2971 584.723,171.7371 593.76,190.6821 " fill="none" id="Mouse&lt;-Windowprocedure" style="stroke: #A80036; stroke-width: 1.0;"/><polygon fill="#A80036" points="558.125,115.9841,558.3899,125.8294,560.2778,120.4969,565.6103,122.3849,558.125,115.9841" style="stroke: #A80036; stroke-width: 1.0;"/><!--MD5=[f70c824c233a44d69a2e916a86444c6b]
reverse link Display to Windowprocedure--><path d="M642.811,120.7291 C633.188,141.2971 618.945,171.7371 610.081,190.6821 " fill="none" id="Display&lt;-Windowprocedure" style="stroke: #A80036; stroke-width: 1.0;"/><polygon fill="#A80036" points="645.031,115.9841,637.5925,122.4392,642.9111,120.5125,644.8379,125.8311,645.031,115.9841" style="stroke: #A80036; stroke-width: 1.0;"/><!--MD5=[4b760969be66404253db220dd018cd64]
link Windowprocedure to Coin handeling--><path d="M675.306,215.4081 C765.832,222.9101 914.089,237.9151 965,258.9531 C986.824,267.9711 1007.93,284.5401 1022.83,297.9851 " fill="none" id="Windowprocedure-&gt;Coin handeling" style="stroke: #A80036; stroke-width: 1.0;"/><polygon fill="#A80036" points="1026.86,301.6861,1022.9207,292.6594,1023.1713,298.3107,1017.52,298.5613,1026.86,301.6861" style="stroke: #A80036; stroke-width: 1.0;"/><!--MD5=[3c5a3078b89b8548741c322958d2a1c9]
link Windowprocedure to Debitcard functionality--><path d="M666.874,227.0441 C695.084,235.3431 728.2,246.2731 757,258.9531 C782.718,270.2761 810.188,286.3111 830.435,298.9561 " fill="none" id="Windowprocedure-&gt;Debitcard functionality" style="stroke: #A80036; stroke-width: 1.0;"/><polygon fill="#A80036" points="834.901,301.7641,829.411,293.5873,830.6682,299.1027,825.1528,300.3598,834.901,301.7641" style="stroke: #A80036; stroke-width: 1.0;"/><!--MD5=[88cb8582895e0d518c8ed0c4a2f5f518]
link Windowprocedure to Drink selection--><path d="M613.875,226.9841 C627.127,245.9901 648.594,276.7791 662.997,297.4351 " fill="none" id="Windowprocedure-&gt;Drink selection" style="stroke: #A80036; stroke-width: 1.0;"/><polygon fill="#A80036" points="665.958,301.6821,664.0912,292.0118,663.0981,297.5808,657.5291,296.5877,665.958,301.6821" style="stroke: #A80036; stroke-width: 1.0;"/><!--MD5=[b42255dddd6d21ec3e39ecea1dc7ed8d]
link Windowprocedure to Screenbuffer--><path d="M590.281,226.9841 C577.204,245.9901 556.019,276.7791 541.806,297.4351 " fill="none" id="Windowprocedure-&gt;Screenbuffer" style="stroke: #A80036; stroke-width: 1.0;"/><polygon fill="#A80036" points="538.884,301.6821,547.2813,296.5357,541.7185,297.5632,540.691,292.0005,538.884,301.6821" style="stroke: #A80036; stroke-width: 1.0;"/><!--MD5=[d72f0b1fc1245ded539849400495d31f]
link Windowprocedure to Write to displaybuffers--><path d="M541.95,226.9601 C514.898,235.3831 482.848,246.4331 455,258.9531 C429.371,270.4761 401.896,286.5001 381.625,299.0901 " fill="none" id="Windowprocedure-&gt;Write to displaybuffers" style="stroke: #A80036; stroke-width: 1.0;"/><polygon fill="#A80036" points="377.153,301.8851,386.905,300.5071,381.393,299.2351,382.665,293.7231,377.153,301.8851" style="stroke: #A80036; stroke-width: 1.0;"/><!--MD5=[360b1dc0e874dc3ba1dd4cbb871d50d4]
link Windowprocedure to Append to displaybuffers--><path d="M528.838,212.7031 C456.088,217.1371 342.065,228.7161 248,258.9531 C218.057,268.5781 186.611,285.7331 164.349,299.2421 " fill="none" id="Windowprocedure-&gt;Append to displaybuffers" style="stroke: #A80036; stroke-width: 1.0;"/><polygon fill="#A80036" points="160.022,301.8921,169.7861,300.6031,164.286,299.2809,165.6082,293.7807,160.022,301.8921" style="stroke: #A80036; stroke-width: 1.0;"/><!--MD5=[e096cbe518e1fcc7b01276fb0029bc03]
link Coin handeling to Hardware IO--><path d="M1016.01,338.0501 C1001.292,346.3671 982.677,355.8601 965,361.9531 C860.223,398.0705 731.447,416.4158 658.847,424.5228 " fill="none" id="Coin handeling-&gt;Hardware IO" style="stroke: #A80036; stroke-width: 1.0;"/><polygon fill="#A80036" points="653.718,425.0889,663.1025,428.0774,658.6878,424.5404,662.2248,420.1257,653.718,425.0889" style="stroke: #A80036; stroke-width: 1.0;"/><!--MD5=[025c3354613ff437a24f9e595d8c58a2]
link Debitcard functionality to Hardware IO--><path d="M820.531,337.9841 C773.532,357.7641 696.209,390.3051 647.258,410.9064 " fill="none" id="Debitcard functionality-&gt;Hardware IO" style="stroke: #A80036; stroke-width: 1.0;"/><polygon fill="#A80036" points="642.611,412.8619,652.4579,413.0594,647.2198,410.9232,649.356,405.6852,642.611,412.8619" style="stroke: #A80036; stroke-width: 1.0;"/><!--MD5=[d4e2bb596193bf4ea589ba66ae31080f]
link Drink selection to Hardware IO--><path d="M666.125,337.9841 C652.873,356.9901 631.406,387.7788 617.003,408.4355 " fill="none" id="Drink selection-&gt;Hardware IO" style="stroke: #A80036; stroke-width: 1.0;"/><polygon fill="#A80036" points="614.042,412.6817,622.4708,407.5871,616.9018,408.5803,615.9086,403.0114,614.042,412.6817" style="stroke: #A80036; stroke-width: 1.0;"/><!--MD5=[8e69c81e3ab48c9d66b1a58fa2f070dd]
link Screenbuffer to Hardware IO--><path d="M538.719,337.9841 C551.796,356.9901 572.981,387.7788 587.194,408.4355 " fill="none" id="Screenbuffer-&gt;Hardware IO" style="stroke: #A80036; stroke-width: 1.0;"/><polygon fill="#A80036" points="590.116,412.6817,588.309,403.0001,587.2815,408.5628,581.7187,407.5353,590.116,412.6817" style="stroke: #A80036; stroke-width: 1.0;"/><!--MD5=[02a5b9898a9d485b94bc85fc99009792]
link Write to displaybuffers to Hardware IO--><path d="M390.219,337.9841 C435.674,357.7241 510.398,390.174 557.853,410.7816 " fill="none" id="Write to displaybuffers-&gt;Hardware IO" style="stroke: #A80036; stroke-width: 1.0;"/><polygon fill="#A80036" points="562.643,412.8619,555.9809,405.6082,558.0567,410.8704,552.7945,412.9463,562.643,412.8619" style="stroke: #A80036; stroke-width: 1.0;"/><!--MD5=[e8d50fae2679fd6c73f9590d2300800c]
link Append to displaybuffers to Hardware IO--><path d="M176.531,338.0291 C197.752,346.0911 223.963,355.3651 248,361.9531 C351.442,390.3047 475.043,411.1724 545.448,421.8696 " fill="none" id="Append to displaybuffers-&gt;Hardware IO" style="stroke: #A80036; stroke-width: 1.0;"/><polygon fill="#A80036" points="550.424,422.6222,542.1228,417.3223,545.4801,421.8751,540.9273,425.2325,550.424,422.6222" style="stroke: #A80036; stroke-width: 1.0;"/><!--MD5=[33efa5a976b96a2ab10aeb29455de44a]
@startuml


title Cola Vending Machine 5 GUI Edition

package "User Interface Layer" {
    [Display]
    [Mouse]
}

package "System Control Layer" {
    [Windowprocedure] #Cyan
}

package "Subsystems Layer" {
    [Coin handeling]
    [Debitcard functionality]
    [Drink selection]
    [Screenbuffer]
    [Write to displaybuffers]
    [Append to displaybuffers]
}

package "Hardware Abstraction Layer" {
    [Hardware IO]
}

[Windowprocedure] -up-> [Mouse]
[Windowprocedure] -up-> [Display]

[Windowprocedure] -down-> [Coin handeling]
[Windowprocedure] -down-> [Debitcard functionality]
[Windowprocedure] -down-> [Drink selection]
[Windowprocedure] -down-> [Screenbuffer]
[Windowprocedure] -down-> [Write to displaybuffers]
[Windowprocedure] -down-> [Append to displaybuffers]

[Coin handeling] -down-> [Hardware IO]
[Debitcard functionality] -down-> [Hardware IO]
[Drink selection] -down-> [Hardware IO]
[Screenbuffer] -down-> [Hardware IO]
[Write to displaybuffers] -down-> [Hardware IO]
[Append to displaybuffers] -down-> [Hardware IO]
@enduml

PlantUML version 1.2020.01beta5(Unknown compile time)
(GPL source distribution)
Java Runtime: Java(TM) SE Runtime Environment
JVM: Java HotSpot(TM) 64-Bit Server VM
Java Version: 1.7.0_25-b15
Operating System: Linux
Default Encoding: UTF-8
Language: en
Country: US
--></g></svg>